<?xml version="1.0" encoding="utf-8"?>
<svg xmlns="http://www.w3.org/2000/svg" xmlns:xlink="http://www.w3.org/1999/xlink" width="600" height="400" viewBox="0 0 2400 1600">
<defs>
  <clipPath id="clip040">
    <rect x="0" y="0" width="2400" height="1600"/>
  </clipPath>
</defs>
<defs>
  <clipPath id="clip041">
    <rect x="480" y="0" width="1681" height="1600"/>
  </clipPath>
</defs>
<defs>
  <clipPath id="clip042">
    <rect x="86" y="47" width="2267" height="1475"/>
  </clipPath>
</defs>
<polyline clip-path="url(#clip042)" style="stroke:#808080; stroke-linecap:round; stroke-linejoin:round; stroke-width:2; stroke-opacity:0.1; fill:none" points="507.37,1521.01 507.37,47.2441 "/>
<polyline clip-path="url(#clip042)" style="stroke:#808080; stroke-linecap:round; stroke-linejoin:round; stroke-width:2; stroke-opacity:0.1; fill:none" points="952.685,1521.01 952.685,47.2441 "/>
<polyline clip-path="url(#clip042)" style="stroke:#808080; stroke-linecap:round; stroke-linejoin:round; stroke-width:2; stroke-opacity:0.1; fill:none" points="1398,1521.01 1398,47.2441 "/>
<polyline clip-path="url(#clip042)" style="stroke:#808080; stroke-linecap:round; stroke-linejoin:round; stroke-width:2; stroke-opacity:0.1; fill:none" points="1843.32,1521.01 1843.32,47.2441 "/>
<polyline clip-path="url(#clip042)" style="stroke:#808080; stroke-linecap:round; stroke-linejoin:round; stroke-width:2; stroke-opacity:0.1; fill:none" points="2288.63,1521.01 2288.63,47.2441 "/>
<polyline clip-path="url(#clip040)" style="stroke:#808080; stroke-linecap:round; stroke-linejoin:round; stroke-width:4; stroke-opacity:1; fill:none" points="86.9921,1521.01 2352.76,1521.01 "/>
<polyline clip-path="url(#clip040)" style="stroke:#808080; stroke-linecap:round; stroke-linejoin:round; stroke-width:4; stroke-opacity:1; fill:none" points="507.37,1521.01 507.37,1502.11 "/>
<polyline clip-path="url(#clip040)" style="stroke:#808080; stroke-linecap:round; stroke-linejoin:round; stroke-width:4; stroke-opacity:1; fill:none" points="952.685,1521.01 952.685,1502.11 "/>
<polyline clip-path="url(#clip040)" style="stroke:#808080; stroke-linecap:round; stroke-linejoin:round; stroke-width:4; stroke-opacity:1; fill:none" points="1398,1521.01 1398,1502.11 "/>
<polyline clip-path="url(#clip040)" style="stroke:#808080; stroke-linecap:round; stroke-linejoin:round; stroke-width:4; stroke-opacity:1; fill:none" points="1843.32,1521.01 1843.32,1502.11 "/>
<polyline clip-path="url(#clip040)" style="stroke:#808080; stroke-linecap:round; stroke-linejoin:round; stroke-width:4; stroke-opacity:1; fill:none" points="2288.63,1521.01 2288.63,1502.11 "/>
<path clip-path="url(#clip040)" d="M486.143 1579.47 L502.462 1579.47 L502.462 1583.41 L480.518 1583.41 L480.518 1579.47 Q483.18 1576.72 487.763 1572.09 Q492.37 1567.44 493.55 1566.09 Q495.796 1563.57 496.675 1561.83 Q497.578 1560.07 497.578 1558.38 Q497.578 1555.63 495.634 1553.89 Q493.712 1552.16 490.611 1552.16 Q488.411 1552.16 485.958 1552.92 Q483.527 1553.69 480.749 1555.24 L480.749 1550.51 Q483.574 1549.38 486.027 1548.8 Q488.481 1548.22 490.518 1548.22 Q495.888 1548.22 499.083 1550.91 Q502.277 1553.59 502.277 1558.08 Q502.277 1560.21 501.467 1562.13 Q500.68 1564.03 498.573 1566.63 Q497.995 1567.3 494.893 1570.51 Q491.791 1573.71 486.143 1579.47 Z" fill="#808080" fill-rule="nonzero" fill-opacity="1" /><path clip-path="url(#clip040)" d="M522.277 1551.93 Q518.666 1551.93 516.837 1555.49 Q515.032 1559.03 515.032 1566.16 Q515.032 1573.27 516.837 1576.83 Q518.666 1580.38 522.277 1580.38 Q525.911 1580.38 527.717 1576.83 Q529.545 1573.27 529.545 1566.16 Q529.545 1559.03 527.717 1555.49 Q525.911 1551.93 522.277 1551.93 M522.277 1548.22 Q528.087 1548.22 531.143 1552.83 Q534.221 1557.41 534.221 1566.16 Q534.221 1574.89 531.143 1579.5 Q528.087 1584.08 522.277 1584.08 Q516.467 1584.08 513.388 1579.5 Q510.333 1574.89 510.333 1566.16 Q510.333 1557.41 513.388 1552.83 Q516.467 1548.22 522.277 1548.22 Z" fill="#808080" fill-rule="nonzero" fill-opacity="1" /><path clip-path="url(#clip040)" d="M940.856 1552.92 L929.051 1571.37 L940.856 1571.37 L940.856 1552.92 M939.629 1548.85 L945.509 1548.85 L945.509 1571.37 L950.44 1571.37 L950.44 1575.26 L945.509 1575.26 L945.509 1583.41 L940.856 1583.41 L940.856 1575.26 L925.254 1575.26 L925.254 1570.75 L939.629 1548.85 Z" fill="#808080" fill-rule="nonzero" fill-opacity="1" /><path clip-path="url(#clip040)" d="M968.171 1551.93 Q964.56 1551.93 962.731 1555.49 Q960.926 1559.03 960.926 1566.16 Q960.926 1573.27 962.731 1576.83 Q964.56 1580.38 968.171 1580.38 Q971.805 1580.38 973.611 1576.83 Q975.439 1573.27 975.439 1566.16 Q975.439 1559.03 973.611 1555.49 Q971.805 1551.93 968.171 1551.93 M968.171 1548.22 Q973.981 1548.22 977.037 1552.83 Q980.115 1557.41 980.115 1566.16 Q980.115 1574.89 977.037 1579.5 Q973.981 1584.08 968.171 1584.08 Q962.361 1584.08 959.282 1579.5 Q956.227 1574.89 956.227 1566.16 Q956.227 1557.41 959.282 1552.83 Q962.361 1548.22 968.171 1548.22 Z" fill="#808080" fill-rule="nonzero" fill-opacity="1" /><path clip-path="url(#clip040)" d="M1383.41 1564.26 Q1380.26 1564.26 1378.41 1566.42 Q1376.58 1568.57 1376.58 1572.32 Q1376.58 1576.05 1378.41 1578.22 Q1380.26 1580.38 1383.41 1580.38 Q1386.55 1580.38 1388.38 1578.22 Q1390.23 1576.05 1390.23 1572.32 Q1390.23 1568.57 1388.38 1566.42 Q1386.55 1564.26 1383.41 1564.26 M1392.69 1549.61 L1392.69 1553.87 Q1390.93 1553.04 1389.12 1552.6 Q1387.34 1552.16 1385.58 1552.16 Q1380.95 1552.16 1378.5 1555.28 Q1376.07 1558.41 1375.72 1564.73 Q1377.09 1562.71 1379.15 1561.65 Q1381.21 1560.56 1383.68 1560.56 Q1388.89 1560.56 1391.9 1563.73 Q1394.93 1566.88 1394.93 1572.32 Q1394.93 1577.64 1391.78 1580.86 Q1388.64 1584.08 1383.41 1584.08 Q1377.41 1584.08 1374.24 1579.5 Q1371.07 1574.89 1371.07 1566.16 Q1371.07 1557.97 1374.96 1553.11 Q1378.85 1548.22 1385.4 1548.22 Q1387.16 1548.22 1388.94 1548.57 Q1390.74 1548.92 1392.69 1549.61 Z" fill="#808080" fill-rule="nonzero" fill-opacity="1" /><path clip-path="url(#clip040)" d="M1412.99 1551.93 Q1409.38 1551.93 1407.55 1555.49 Q1405.74 1559.03 1405.74 1566.16 Q1405.74 1573.27 1407.55 1576.83 Q1409.38 1580.38 1412.99 1580.38 Q1416.62 1580.38 1418.43 1576.83 Q1420.26 1573.27 1420.26 1566.16 Q1420.26 1559.03 1418.43 1555.49 Q1416.62 1551.93 1412.99 1551.93 M1412.99 1548.22 Q1418.8 1548.22 1421.85 1552.83 Q1424.93 1557.41 1424.93 1566.16 Q1424.93 1574.89 1421.85 1579.5 Q1418.8 1584.08 1412.99 1584.08 Q1407.18 1584.08 1404.1 1579.5 Q1401.04 1574.89 1401.04 1566.16 Q1401.04 1557.41 1404.1 1552.83 Q1407.18 1548.22 1412.99 1548.22 Z" fill="#808080" fill-rule="nonzero" fill-opacity="1" /><path clip-path="url(#clip040)" d="M1828.19 1567 Q1824.85 1567 1822.93 1568.78 Q1821.04 1570.56 1821.04 1573.69 Q1821.04 1576.81 1822.93 1578.59 Q1824.85 1580.38 1828.19 1580.38 Q1831.52 1580.38 1833.44 1578.59 Q1835.36 1576.79 1835.36 1573.69 Q1835.36 1570.56 1833.44 1568.78 Q1831.54 1567 1828.19 1567 M1823.51 1565.01 Q1820.5 1564.26 1818.81 1562.2 Q1817.15 1560.14 1817.15 1557.18 Q1817.15 1553.04 1820.09 1550.63 Q1823.05 1548.22 1828.19 1548.22 Q1833.35 1548.22 1836.29 1550.63 Q1839.23 1553.04 1839.23 1557.18 Q1839.23 1560.14 1837.54 1562.2 Q1835.87 1564.26 1832.89 1565.01 Q1836.27 1565.79 1838.14 1568.08 Q1840.04 1570.38 1840.04 1573.69 Q1840.04 1578.71 1836.96 1581.39 Q1833.91 1584.08 1828.19 1584.08 Q1822.47 1584.08 1819.39 1581.39 Q1816.34 1578.71 1816.34 1573.69 Q1816.34 1570.38 1818.23 1568.08 Q1820.13 1565.79 1823.51 1565.01 M1821.8 1557.62 Q1821.8 1560.31 1823.47 1561.81 Q1825.16 1563.32 1828.19 1563.32 Q1831.2 1563.32 1832.89 1561.81 Q1834.6 1560.31 1834.6 1557.62 Q1834.6 1554.94 1832.89 1553.43 Q1831.2 1551.93 1828.19 1551.93 Q1825.16 1551.93 1823.47 1553.43 Q1821.8 1554.94 1821.8 1557.62 Z" fill="#808080" fill-rule="nonzero" fill-opacity="1" /><path clip-path="url(#clip040)" d="M1858.35 1551.93 Q1854.74 1551.93 1852.91 1555.49 Q1851.1 1559.03 1851.1 1566.16 Q1851.1 1573.27 1852.91 1576.83 Q1854.74 1580.38 1858.35 1580.38 Q1861.98 1580.38 1863.79 1576.83 Q1865.62 1573.27 1865.62 1566.16 Q1865.62 1559.03 1863.79 1555.49 Q1861.98 1551.93 1858.35 1551.93 M1858.35 1548.22 Q1864.16 1548.22 1867.22 1552.83 Q1870.29 1557.41 1870.29 1566.16 Q1870.29 1574.89 1867.22 1579.5 Q1864.16 1584.08 1858.35 1584.08 Q1852.54 1584.08 1849.46 1579.5 Q1846.41 1574.89 1846.41 1566.16 Q1846.41 1557.41 1849.46 1552.83 Q1852.54 1548.22 1858.35 1548.22 Z" fill="#808080" fill-rule="nonzero" fill-opacity="1" /><path clip-path="url(#clip040)" d="M2248.24 1579.47 L2255.88 1579.47 L2255.88 1553.11 L2247.57 1554.77 L2247.57 1550.51 L2255.83 1548.85 L2260.51 1548.85 L2260.51 1579.47 L2268.14 1579.47 L2268.14 1583.41 L2248.24 1583.41 L2248.24 1579.47 Z" fill="#808080" fill-rule="nonzero" fill-opacity="1" /><path clip-path="url(#clip040)" d="M2287.59 1551.93 Q2283.98 1551.93 2282.15 1555.49 Q2280.34 1559.03 2280.34 1566.16 Q2280.34 1573.27 2282.15 1576.83 Q2283.98 1580.38 2287.59 1580.38 Q2291.22 1580.38 2293.03 1576.83 Q2294.86 1573.27 2294.86 1566.16 Q2294.86 1559.03 2293.03 1555.49 Q2291.22 1551.93 2287.59 1551.93 M2287.59 1548.22 Q2293.4 1548.22 2296.45 1552.83 Q2299.53 1557.41 2299.53 1566.16 Q2299.53 1574.89 2296.45 1579.5 Q2293.4 1584.08 2287.59 1584.08 Q2281.78 1584.08 2278.7 1579.5 Q2275.64 1574.89 2275.64 1566.16 Q2275.64 1557.41 2278.7 1552.83 Q2281.78 1548.22 2287.59 1548.22 Z" fill="#808080" fill-rule="nonzero" fill-opacity="1" /><path clip-path="url(#clip040)" d="M2317.75 1551.93 Q2314.14 1551.93 2312.31 1555.49 Q2310.51 1559.03 2310.51 1566.16 Q2310.51 1573.27 2312.31 1576.83 Q2314.14 1580.38 2317.75 1580.38 Q2321.38 1580.38 2323.19 1576.83 Q2325.02 1573.27 2325.02 1566.16 Q2325.02 1559.03 2323.19 1555.49 Q2321.38 1551.93 2317.75 1551.93 M2317.75 1548.22 Q2323.56 1548.22 2326.62 1552.83 Q2329.7 1557.41 2329.7 1566.16 Q2329.7 1574.89 2326.62 1579.5 Q2323.56 1584.08 2317.75 1584.08 Q2311.94 1584.08 2308.86 1579.5 Q2305.81 1574.89 2305.81 1566.16 Q2305.81 1557.41 2308.86 1552.83 Q2311.94 1548.22 2317.75 1548.22 Z" fill="#808080" fill-rule="nonzero" fill-opacity="1" /><polyline clip-path="url(#clip042)" style="stroke:#808080; stroke-linecap:round; stroke-linejoin:round; stroke-width:2; stroke-opacity:0.1; fill:none" points="86.9921,1222.95 2352.76,1222.95 "/>
<polyline clip-path="url(#clip042)" style="stroke:#808080; stroke-linecap:round; stroke-linejoin:round; stroke-width:2; stroke-opacity:0.1; fill:none" points="86.9921,744.027 2352.76,744.027 "/>
<polyline clip-path="url(#clip042)" style="stroke:#808080; stroke-linecap:round; stroke-linejoin:round; stroke-width:2; stroke-opacity:0.1; fill:none" points="86.9921,265.103 2352.76,265.103 "/>
<polyline clip-path="url(#clip040)" style="stroke:#808080; stroke-linecap:round; stroke-linejoin:round; stroke-width:4; stroke-opacity:1; fill:none" points="86.9921,1521.01 86.9921,47.2441 "/>
<polyline clip-path="url(#clip040)" style="stroke:#808080; stroke-linecap:round; stroke-linejoin:round; stroke-width:4; stroke-opacity:1; fill:none" points="86.9921,1222.95 105.89,1222.95 "/>
<polyline clip-path="url(#clip040)" style="stroke:#808080; stroke-linecap:round; stroke-linejoin:round; stroke-width:4; stroke-opacity:1; fill:none" points="86.9921,744.027 105.89,744.027 "/>
<polyline clip-path="url(#clip040)" style="stroke:#808080; stroke-linecap:round; stroke-linejoin:round; stroke-width:4; stroke-opacity:1; fill:none" points="86.9921,265.103 105.89,265.103 "/>
<path clip-path="url(#clip040)" d="M-74.9519 1242.74 L-67.3131 1242.74 L-67.3131 1216.38 L-75.6232 1218.05 L-75.6232 1213.79 L-67.3594 1212.12 L-62.6835 1212.12 L-62.6835 1242.74 L-55.0446 1242.74 L-55.0446 1246.68 L-74.9519 1246.68 L-74.9519 1242.74 Z" fill="#808080" fill-rule="nonzero" fill-opacity="1" /><path clip-path="url(#clip040)" d="M-35.6003 1215.2 Q-39.2114 1215.2 -41.0401 1218.76 Q-42.8456 1222.3 -42.8456 1229.43 Q-42.8456 1236.54 -41.0401 1240.11 Q-39.2114 1243.65 -35.6003 1243.65 Q-31.9661 1243.65 -30.1605 1240.11 Q-28.3318 1236.54 -28.3318 1229.43 Q-28.3318 1222.3 -30.1605 1218.76 Q-31.9661 1215.2 -35.6003 1215.2 M-35.6003 1211.49 Q-29.7901 1211.49 -26.7346 1216.1 Q-23.6559 1220.68 -23.6559 1229.43 Q-23.6559 1238.16 -26.7346 1242.77 Q-29.7901 1247.35 -35.6003 1247.35 Q-41.4104 1247.35 -44.4891 1242.77 Q-47.5447 1238.16 -47.5447 1229.43 Q-47.5447 1220.68 -44.4891 1216.1 Q-41.4104 1211.49 -35.6003 1211.49 Z" fill="#808080" fill-rule="nonzero" fill-opacity="1" /><path clip-path="url(#clip040)" d="M-23.6559 1205.6 L0.455649 1205.6 L0.455649 1208.79 L-23.6559 1208.79 L-23.6559 1205.6 Z" fill="#808080" fill-rule="nonzero" fill-opacity="1" /><path clip-path="url(#clip040)" d="M9.31411 1216.07 L15.5207 1216.07 L15.5207 1194.65 L8.76868 1196 L8.76868 1192.54 L15.4831 1191.19 L19.2822 1191.19 L19.2822 1216.07 L25.4888 1216.07 L25.4888 1219.27 L9.31411 1219.27 L9.31411 1216.07 Z" fill="#808080" fill-rule="nonzero" fill-opacity="1" /><path clip-path="url(#clip040)" d="M41.2873 1193.69 Q38.3533 1193.69 36.8675 1196.59 Q35.4005 1199.46 35.4005 1205.26 Q35.4005 1211.03 36.8675 1213.93 Q38.3533 1216.81 41.2873 1216.81 Q44.2401 1216.81 45.7071 1213.93 Q47.193 1211.03 47.193 1205.26 Q47.193 1199.46 45.7071 1196.59 Q44.2401 1193.69 41.2873 1193.69 M41.2873 1190.68 Q46.0081 1190.68 48.4907 1194.42 Q50.9921 1198.15 50.9921 1205.26 Q50.9921 1212.35 48.4907 1216.09 Q46.0081 1219.81 41.2873 1219.81 Q36.5666 1219.81 34.0651 1216.09 Q31.5825 1212.35 31.5825 1205.26 Q31.5825 1198.15 34.0651 1194.42 Q36.5666 1190.68 41.2873 1190.68 Z" fill="#808080" fill-rule="nonzero" fill-opacity="1" /><path clip-path="url(#clip040)" d="M-19.7135 763.82 L-12.0747 763.82 L-12.0747 737.454 L-20.3848 739.121 L-20.3848 734.862 L-12.121 733.195 L-7.44506 733.195 L-7.44506 763.82 L0.193787 763.82 L0.193787 767.755 L-19.7135 767.755 L-19.7135 763.82 Z" fill="#808080" fill-rule="nonzero" fill-opacity="1" /><path clip-path="url(#clip040)" d="M19.6381 736.274 Q16.027 736.274 14.1983 739.839 Q12.3928 743.38 12.3928 750.51 Q12.3928 757.616 14.1983 761.181 Q16.027 764.723 19.6381 764.723 Q23.2724 764.723 25.0779 761.181 Q26.9066 757.616 26.9066 750.51 Q26.9066 743.38 25.0779 739.839 Q23.2724 736.274 19.6381 736.274 M19.6381 732.57 Q25.4483 732.57 28.5038 737.177 Q31.5825 741.76 31.5825 750.51 Q31.5825 759.237 28.5038 763.843 Q25.4483 768.426 19.6381 768.426 Q13.828 768.426 10.7493 763.843 Q7.69375 759.237 7.69375 750.51 Q7.69375 741.76 10.7493 737.177 Q13.828 732.57 19.6381 732.57 Z" fill="#808080" fill-rule="nonzero" fill-opacity="1" /><path clip-path="url(#clip040)" d="M41.2873 714.766 Q38.3533 714.766 36.8675 717.662 Q35.4005 720.54 35.4005 726.333 Q35.4005 732.107 36.8675 735.003 Q38.3533 737.881 41.2873 737.881 Q44.2401 737.881 45.7071 735.003 Q47.193 732.107 47.193 726.333 Q47.193 720.54 45.7071 717.662 Q44.2401 714.766 41.2873 714.766 M41.2873 711.757 Q46.0081 711.757 48.4907 715.5 Q50.9921 719.224 50.9921 726.333 Q50.9921 733.423 48.4907 737.166 Q46.0081 740.89 41.2873 740.89 Q36.5666 740.89 34.0651 737.166 Q31.5825 733.423 31.5825 726.333 Q31.5825 719.224 34.0651 715.5 Q36.5666 711.757 41.2873 711.757 Z" fill="#808080" fill-rule="nonzero" fill-opacity="1" /><path clip-path="url(#clip040)" d="M-42.5273 284.895 L-34.8885 284.895 L-34.8885 258.53 L-43.1986 260.197 L-43.1986 255.937 L-34.9348 254.271 L-30.2589 254.271 L-30.2589 284.895 L-22.62 284.895 L-22.62 288.831 L-42.5273 288.831 L-42.5273 284.895 Z" fill="#808080" fill-rule="nonzero" fill-opacity="1" /><path clip-path="url(#clip040)" d="M-3.1757 257.349 Q-6.78679 257.349 -8.61548 260.914 Q-10.421 264.456 -10.421 271.585 Q-10.421 278.692 -8.61548 282.257 Q-6.78679 285.798 -3.1757 285.798 Q0.458543 285.798 2.26409 282.257 Q4.09278 278.692 4.09278 271.585 Q4.09278 264.456 2.26409 260.914 Q0.458543 257.349 -3.1757 257.349 M-3.1757 253.646 Q2.63446 253.646 5.69 258.252 Q8.76868 262.835 8.76868 271.585 Q8.76868 280.312 5.69 284.919 Q2.63446 289.502 -3.1757 289.502 Q-8.98585 289.502 -12.0645 284.919 Q-15.1201 280.312 -15.1201 271.585 Q-15.1201 262.835 -12.0645 258.252 Q-8.98585 253.646 -3.1757 253.646 Z" fill="#808080" fill-rule="nonzero" fill-opacity="1" /><path clip-path="url(#clip040)" d="M9.31411 258.223 L15.5207 258.223 L15.5207 236.801 L8.76868 238.155 L8.76868 234.694 L15.4831 233.34 L19.2822 233.34 L19.2822 258.223 L25.4888 258.223 L25.4888 261.42 L9.31411 261.42 L9.31411 258.223 Z" fill="#808080" fill-rule="nonzero" fill-opacity="1" /><path clip-path="url(#clip040)" d="M41.2873 235.842 Q38.3533 235.842 36.8675 238.738 Q35.4005 241.616 35.4005 247.408 Q35.4005 253.182 36.8675 256.079 Q38.3533 258.956 41.2873 258.956 Q44.2401 258.956 45.7071 256.079 Q47.193 253.182 47.193 247.408 Q47.193 241.616 45.7071 238.738 Q44.2401 235.842 41.2873 235.842 M41.2873 232.832 Q46.0081 232.832 48.4907 236.575 Q50.9921 240.299 50.9921 247.408 Q50.9921 254.499 48.4907 258.242 Q46.0081 261.966 41.2873 261.966 Q36.5666 261.966 34.0651 258.242 Q31.5825 254.499 31.5825 247.408 Q31.5825 240.299 34.0651 236.575 Q36.5666 232.832 41.2873 232.832 Z" fill="#808080" fill-rule="nonzero" fill-opacity="1" /><polyline clip-path="url(#clip042)" style="stroke:#009af9; stroke-linecap:round; stroke-linejoin:round; stroke-width:4; stroke-opacity:1; fill:none" points="151.118,1479.3 173.383,1456.45 195.649,1438.82 217.915,1425.16 240.181,1412.35 262.446,1399 284.712,1385.25 306.978,1371.34 329.244,1357.19 351.509,1342.96 373.775,1328.67 396.041,1314.33 418.307,1299.95 440.572,1285.55 462.838,1271.14 485.104,1256.73 507.37,1242.32 529.635,1227.9 551.901,1213.48 574.167,1199.07 596.433,1184.65 618.698,1170.23 640.964,1155.82 663.23,1141.4 685.496,1126.98 707.762,1112.57 730.027,1098.15 752.293,1083.73 774.559,1069.31 796.825,1054.9 819.09,1040.48 841.356,1026.06 863.622,1011.65 885.888,997.229 908.153,982.812 930.419,968.395 952.685,953.978 974.951,939.561 997.216,925.144 1019.48,910.727 1041.75,896.31 1064.01,881.893 1086.28,867.476 1108.55,853.059 1130.81,838.642 1153.08,824.225 1175.34,809.807 1197.61,795.39 1219.87,780.973 1242.14,766.556 1264.41,752.139 1286.67,737.722 1308.94,723.305 1331.2,708.888 1353.47,694.471 1375.73,680.054 1398,665.637 1420.27,651.22 1442.53,636.803 1464.8,622.386 1487.06,607.969 1509.33,593.552 1531.59,579.134 1553.86,564.717 1576.13,550.3 1598.39,535.883 1620.66,521.466 1642.92,507.049 1665.19,492.632 1687.45,478.215 1709.72,463.798 1731.99,449.381 1754.25,434.964 1776.52,420.547 1798.78,406.13 1821.05,391.713 1843.32,377.296 1865.58,362.879 1887.85,348.461 1910.11,334.044 1932.38,319.627 1954.64,305.21 1976.91,290.793 1999.18,276.376 2021.44,261.959 2043.71,247.542 2065.97,233.125 2088.24,218.708 2110.5,204.291 2132.77,189.874 2155.04,175.457 2177.3,161.04 2199.57,146.623 2221.83,132.206 2244.1,117.789 2266.36,103.371 2288.63,88.9544 "/>
<path clip-path="url(#clip040)" d="M1688.73 200.05 L2277.23 200.05 L2277.23 96.3696 L1688.73 96.3696  Z" fill="#000000" fill-rule="evenodd" fill-opacity="0"/>
<polyline clip-path="url(#clip040)" style="stroke:#808080; stroke-linecap:round; stroke-linejoin:round; stroke-width:4; stroke-opacity:1; fill:none" points="1688.73,200.05 2277.23,200.05 2277.23,96.3696 1688.73,96.3696 1688.73,200.05 "/>
<polyline clip-path="url(#clip040)" style="stroke:#009af9; stroke-linecap:round; stroke-linejoin:round; stroke-width:4; stroke-opacity:1; fill:none" points="1713.91,148.21 1864.96,148.21 "/>
<path clip-path="url(#clip040)" d="M1911.85 149.841 L1911.85 165.49 L1907.59 165.49 L1907.59 149.98 Q1907.59 146.3 1906.15 144.471 Q1904.72 142.642 1901.85 142.642 Q1898.4 142.642 1896.41 144.842 Q1894.42 147.041 1894.42 150.837 L1894.42 165.49 L1890.14 165.49 L1890.14 139.564 L1894.42 139.564 L1894.42 143.592 Q1895.95 141.254 1898.01 140.096 Q1900.09 138.939 1902.8 138.939 Q1907.27 138.939 1909.56 141.717 Q1911.85 144.471 1911.85 149.841 Z" fill="#808080" fill-rule="nonzero" fill-opacity="1" /><path clip-path="url(#clip040)" d="M1919.9 155.258 L1919.9 139.564 L1924.16 139.564 L1924.16 155.096 Q1924.16 158.777 1925.6 160.628 Q1927.03 162.457 1929.9 162.457 Q1933.35 162.457 1935.34 160.258 Q1937.36 158.059 1937.36 154.263 L1937.36 139.564 L1941.62 139.564 L1941.62 165.49 L1937.36 165.49 L1937.36 161.508 Q1935.81 163.869 1933.75 165.027 Q1931.71 166.161 1929 166.161 Q1924.53 166.161 1922.22 163.383 Q1919.9 160.605 1919.9 155.258 M1930.62 138.939 L1930.62 138.939 Z" fill="#808080" fill-rule="nonzero" fill-opacity="1" /><path clip-path="url(#clip040)" d="M1970.58 144.541 Q1972.17 141.67 1974.39 140.305 Q1976.62 138.939 1979.63 138.939 Q1983.68 138.939 1985.88 141.786 Q1988.08 144.61 1988.08 149.841 L1988.08 165.49 L1983.79 165.49 L1983.79 149.98 Q1983.79 146.254 1982.47 144.448 Q1981.15 142.642 1978.45 142.642 Q1975.14 142.642 1973.21 144.842 Q1971.29 147.041 1971.29 150.837 L1971.29 165.49 L1967.01 165.49 L1967.01 149.98 Q1967.01 146.23 1965.69 144.448 Q1964.37 142.642 1961.62 142.642 Q1958.35 142.642 1956.43 144.865 Q1954.51 147.064 1954.51 150.837 L1954.51 165.49 L1950.23 165.49 L1950.23 139.564 L1954.51 139.564 L1954.51 143.592 Q1955.97 141.207 1958.01 140.073 Q1960.04 138.939 1962.84 138.939 Q1965.67 138.939 1967.64 140.374 Q1969.63 141.809 1970.58 144.541 Z" fill="#808080" fill-rule="nonzero" fill-opacity="1" /><path clip-path="url(#clip040)" d="M2018.75 151.462 L2018.75 153.545 L1999.16 153.545 Q1999.44 157.943 2001.8 160.258 Q2004.19 162.55 2008.42 162.55 Q2010.88 162.55 2013.17 161.948 Q2015.48 161.346 2017.75 160.142 L2017.75 164.17 Q2015.46 165.142 2013.05 165.652 Q2010.64 166.161 2008.17 166.161 Q2001.96 166.161 1998.33 162.55 Q1994.72 158.939 1994.72 152.781 Q1994.72 146.416 1998.14 142.689 Q2001.59 138.939 2007.43 138.939 Q2012.66 138.939 2015.69 142.318 Q2018.75 145.675 2018.75 151.462 M2014.49 150.212 Q2014.44 146.717 2012.52 144.633 Q2010.62 142.55 2007.47 142.55 Q2003.91 142.55 2001.76 144.564 Q1999.63 146.578 1999.3 150.235 L2014.49 150.212 Z" fill="#808080" fill-rule="nonzero" fill-opacity="1" /><path clip-path="url(#clip040)" d="M2040.76 143.545 Q2040.04 143.129 2039.19 142.943 Q2038.35 142.735 2037.33 142.735 Q2033.72 142.735 2031.78 145.096 Q2029.86 147.434 2029.86 151.832 L2029.86 165.49 L2025.58 165.49 L2025.58 139.564 L2029.86 139.564 L2029.86 143.592 Q2031.2 141.23 2033.35 140.096 Q2035.51 138.939 2038.58 138.939 Q2039.02 138.939 2039.56 139.008 Q2040.09 139.055 2040.74 139.17 L2040.76 143.545 Z" fill="#808080" fill-rule="nonzero" fill-opacity="1" /><path clip-path="url(#clip040)" d="M2045.23 139.564 L2049.49 139.564 L2049.49 165.49 L2045.23 165.49 L2045.23 139.564 M2045.23 129.471 L2049.49 129.471 L2049.49 134.865 L2045.23 134.865 L2045.23 129.471 Z" fill="#808080" fill-rule="nonzero" fill-opacity="1" /><path clip-path="url(#clip040)" d="M2077.06 140.559 L2077.06 144.541 Q2075.25 143.545 2073.42 143.059 Q2071.62 142.55 2069.76 142.55 Q2065.62 142.55 2063.33 145.189 Q2061.04 147.804 2061.04 152.55 Q2061.04 157.295 2063.33 159.934 Q2065.62 162.55 2069.76 162.55 Q2071.62 162.55 2073.42 162.064 Q2075.25 161.554 2077.06 160.559 L2077.06 164.494 Q2075.27 165.328 2073.35 165.744 Q2071.45 166.161 2069.3 166.161 Q2063.45 166.161 2060 162.48 Q2056.55 158.8 2056.55 152.55 Q2056.55 146.207 2060.02 142.573 Q2063.51 138.939 2069.58 138.939 Q2071.55 138.939 2073.42 139.355 Q2075.3 139.749 2077.06 140.559 Z" fill="#808080" fill-rule="nonzero" fill-opacity="1" /><path clip-path="url(#clip040)" d="M2096.25 152.457 Q2091.08 152.457 2089.09 153.638 Q2087.1 154.818 2087.1 157.666 Q2087.1 159.934 2088.58 161.277 Q2090.09 162.596 2092.66 162.596 Q2096.2 162.596 2098.33 160.096 Q2100.48 157.573 2100.48 153.406 L2100.48 152.457 L2096.25 152.457 M2104.74 150.698 L2104.74 165.49 L2100.48 165.49 L2100.48 161.554 Q2099.02 163.915 2096.85 165.05 Q2094.67 166.161 2091.52 166.161 Q2087.54 166.161 2085.18 163.939 Q2082.84 161.693 2082.84 157.943 Q2082.84 153.568 2085.76 151.346 Q2088.7 149.124 2094.51 149.124 L2100.48 149.124 L2100.48 148.707 Q2100.48 145.767 2098.54 144.17 Q2096.62 142.55 2093.12 142.55 Q2090.9 142.55 2088.79 143.082 Q2086.69 143.615 2084.74 144.679 L2084.74 140.744 Q2087.08 139.842 2089.28 139.402 Q2091.48 138.939 2093.56 138.939 Q2099.19 138.939 2101.96 141.855 Q2104.74 144.772 2104.74 150.698 Z" fill="#808080" fill-rule="nonzero" fill-opacity="1" /><path clip-path="url(#clip040)" d="M2113.51 129.471 L2117.77 129.471 L2117.77 165.49 L2113.51 165.49 L2113.51 129.471 Z" fill="#808080" fill-rule="nonzero" fill-opacity="1" /><path clip-path="url(#clip040)" d="M2163.93 151.462 L2163.93 153.545 L2144.35 153.545 Q2144.63 157.943 2146.99 160.258 Q2149.37 162.55 2153.61 162.55 Q2156.06 162.55 2158.35 161.948 Q2160.67 161.346 2162.94 160.142 L2162.94 164.17 Q2160.64 165.142 2158.24 165.652 Q2155.83 166.161 2153.35 166.161 Q2147.15 166.161 2143.51 162.55 Q2139.9 158.939 2139.9 152.781 Q2139.9 146.416 2143.33 142.689 Q2146.78 138.939 2152.61 138.939 Q2157.84 138.939 2160.88 142.318 Q2163.93 145.675 2163.93 151.462 M2159.67 150.212 Q2159.63 146.717 2157.7 144.633 Q2155.81 142.55 2152.66 142.55 Q2149.09 142.55 2146.94 144.564 Q2144.81 146.578 2144.49 150.235 L2159.67 150.212 Z" fill="#808080" fill-rule="nonzero" fill-opacity="1" /><path clip-path="url(#clip040)" d="M2185.94 143.545 Q2185.23 143.129 2184.37 142.943 Q2183.54 142.735 2182.52 142.735 Q2178.91 142.735 2176.96 145.096 Q2175.04 147.434 2175.04 151.832 L2175.04 165.49 L2170.76 165.49 L2170.76 139.564 L2175.04 139.564 L2175.04 143.592 Q2176.38 141.23 2178.54 140.096 Q2180.69 138.939 2183.77 138.939 Q2184.21 138.939 2184.74 139.008 Q2185.27 139.055 2185.92 139.17 L2185.94 143.545 Z" fill="#808080" fill-rule="nonzero" fill-opacity="1" /><path clip-path="url(#clip040)" d="M2204.6 143.545 Q2203.88 143.129 2203.03 142.943 Q2202.19 142.735 2201.18 142.735 Q2197.56 142.735 2195.62 145.096 Q2193.7 147.434 2193.7 151.832 L2193.7 165.49 L2189.42 165.49 L2189.42 139.564 L2193.7 139.564 L2193.7 143.592 Q2195.04 141.23 2197.19 140.096 Q2199.35 138.939 2202.43 138.939 Q2202.87 138.939 2203.4 139.008 Q2203.93 139.055 2204.58 139.17 L2204.6 143.545 Z" fill="#808080" fill-rule="nonzero" fill-opacity="1" /><path clip-path="url(#clip040)" d="M2218.07 142.55 Q2214.65 142.55 2212.66 145.235 Q2210.67 147.897 2210.67 152.55 Q2210.67 157.203 2212.63 159.888 Q2214.62 162.55 2218.07 162.55 Q2221.48 162.55 2223.47 159.865 Q2225.46 157.179 2225.46 152.55 Q2225.46 147.943 2223.47 145.258 Q2221.48 142.55 2218.07 142.55 M2218.07 138.939 Q2223.63 138.939 2226.8 142.55 Q2229.97 146.161 2229.97 152.55 Q2229.97 158.916 2226.8 162.55 Q2223.63 166.161 2218.07 166.161 Q2212.5 166.161 2209.32 162.55 Q2206.18 158.916 2206.18 152.55 Q2206.18 146.161 2209.32 142.55 Q2212.5 138.939 2218.07 138.939 Z" fill="#808080" fill-rule="nonzero" fill-opacity="1" /><path clip-path="url(#clip040)" d="M2252.06 143.545 Q2251.34 143.129 2250.48 142.943 Q2249.65 142.735 2248.63 142.735 Q2245.02 142.735 2243.07 145.096 Q2241.15 147.434 2241.15 151.832 L2241.15 165.49 L2236.87 165.49 L2236.87 139.564 L2241.15 139.564 L2241.15 143.592 Q2242.5 141.23 2244.65 140.096 Q2246.8 138.939 2249.88 138.939 Q2250.32 138.939 2250.85 139.008 Q2251.38 139.055 2252.03 139.17 L2252.06 143.545 Z" fill="#808080" fill-rule="nonzero" fill-opacity="1" /></svg>
